<svg width="15" height="15" viewBox="0 0 15 15" fill="none" xmlns="http://www.w3.org/2000/svg">
<path fill-rule="evenodd" clip-rule="evenodd" d="M4.6875 0H10.3125C12.9009 0 15 2.09906 15 4.6875V10.3125C15 12.9009 12.9009 15 10.3125 15H4.6875C2.09906 15 0 12.9009 0 10.3125V4.6875C0 2.09906 2.09906 0 4.6875 0ZM10.3125 13.5938C12.1219 13.5938 13.5938 12.1219 13.5938 10.3125V4.6875C13.5938 2.87812 12.1219 1.40625 10.3125 1.40625H4.6875C2.87812 1.40625 1.40625 2.87812 1.40625 4.6875V10.3125C1.40625 12.1219 2.87812 13.5938 4.6875 13.5938H10.3125Z" fill="black"/>
<path fill-rule="evenodd" clip-rule="evenodd" d="M3.7583 7.51709C3.7583 5.44143 5.44119 3.75854 7.51684 3.75854C9.5925 3.75854 11.2754 5.44143 11.2754 7.51709C11.2754 9.59274 9.5925 11.2756 7.51684 11.2756C5.44119 11.2756 3.7583 9.59274 3.7583 7.51709ZM5.16775 7.51709C5.16775 8.8119 6.22203 9.86618 7.51684 9.86618C8.81166 9.86618 9.86593 8.8119 9.86593 7.51709C9.86593 6.22133 8.81166 5.168 7.51684 5.168C6.22203 5.168 5.16775 6.22133 5.16775 7.51709Z" fill="black"/>
<path fill-rule="evenodd" clip-rule="evenodd" d="M11.5321 3.96354C11.8057 3.96354 12.0275 3.74173 12.0275 3.4681C12.0275 3.19447 11.8057 2.97266 11.5321 2.97266C11.2584 2.97266 11.0366 3.19447 11.0366 3.4681C11.0366 3.74173 11.2584 3.96354 11.5321 3.96354Z" fill="black"/>
</svg>
